# xmcd
#
# Track frame offsets:
#	150
#	15817
#	28625
#	41710
#	51245
#	64755
#	77267
#	89762
#	100617
#	114060
#	124567
#	136532
#	151415
#	166057
#	181192
#	194432
#	209702
#	222907
#	236515
#	249885
#	263512
#	274392
#	307250
#	320507
#	328620
#	335197
# Disc length: 4645 seconds
# Revision: 2
# Processed by: cddbd v1.5.1PL2 Copyright (c) Steve Scherf et al.
#
# Submitted via: libkcddb 0.3
#
DISCID=6212231a
DTITLE=Various Artist - 瀬戸口藤吉生誕130年記念 永久保存版 軍艦マーチのすべて
DYEAR=1900
DGENRE=Unknown
TTITLE0=同校応援團/岩手県立盛岡第一高等学校校歌
TTITLE1=井上 章指揮 海上自衛隊東京音楽隊/軍艦行進曲
TTITLE2=レイモン・リシャール指揮 ギャルド・レピュぶりケーヌ吹奏楽団/軍艦行進曲
TTITLE3=海軍兵学校出身者(斉唱)/白石十四男指揮/軍艦行進曲
TTITLE4=海軍機関学校出身者(斉唱)/海上自衛隊東京音楽隊/軍艦行進曲
TTITLE5=三島 由紀夫指揮 読売日本交響楽団/軍艦行進曲
TTITLE6=ミャンマー国軍軍楽隊<斉唱付>/ミャンマー・ドゥーイェ・タッマドウ(ヤンマー国軍)
TTITLE7=谷村政次郎指揮 海上自衛隊東京音楽隊/軍艦行進曲(ハッセルマン編曲版)
TTITLE8=井上 章指揮 海上自衛隊東京音楽隊/軍艦行進曲(オリジナル変ロ長調版)
TTITLE9=海軍軍楽隊(初録音)/軍艦行進曲
TTITLE10=海軍軍楽隊(斉唱付)/軍艦行進曲
TTITLE11=東海林太郎(歌)/瀬戸口藤吉指揮 日本ポリドール吹奏楽団/軍艦行進曲
TTITLE12=奥田良三(歌)/内藤清五郎指揮 海軍軍楽隊/行進曲「軍艦」
TTITLE13=海軍軍楽隊
TTITLE14=独逸ポリドール軍楽隊
TTITLE15=海軍軍楽隊
TTITLE16=伯林フィルハーモニック管弦楽団
TTITLE17=巴里ムーランルージュ楽員
TTITLE18=宮田東峰指揮 ミヤタハーモニカバンド/軍艦行進曲(宮田東峰編曲)
TTITLE19=田中充山(尺八)/中島雅楽之都社中(琴、鳴物)/軍艦行進曲(中島雅楽之都編曲)
TTITLE20=和田 肇(ピアノ)/軍艦行進曲(和田 肇編曲)
TTITLE21=/2台のピアノのための軍艦マーチによるパラフレーズ(田中喜直作曲)
TTITLE22=バッキー白片(ハワイアン・ギター)/テイチクオーケストラ/軍艦マーチ(長津義司編曲)
TTITLE23=寺内タケシ&ブルーシーズン/軍艦マーチ(寺内タケシ編曲)
TTITLE24=イ・ワヤン・マドラ、イ・クトゥット・ムディナ(ティンクリック=インドネシアの竹製シロフォン)/ラグ・アンカタン・ラウト・ジュパン(日本海軍の歌)
TTITLE25=菊乃家(チンドン)/軍艦マーチ
EXTD=
EXTT0=
EXTT1=
EXTT2=
EXTT3=
EXTT4=
EXTT5=
EXTT6=
EXTT7=
EXTT8=
EXTT9=
EXTT10=
EXTT11=
EXTT12=
EXTT13=
EXTT14=
EXTT15=
EXTT16=
EXTT17=
EXTT18=
EXTT19=
EXTT20=
EXTT21=
EXTT22=
EXTT23=
EXTT24=
EXTT25=
PLAYORDER=
